<?xml version="1.0" encoding="utf-8"?>
<!-- Generator: Adobe Illustrator 19.1.0, SVG Export Plug-In . SVG Version: 6.00 Build 0)  -->
<svg version="1.1" id="Layer_1" xmlns="http://www.w3.org/2000/svg" xmlns:xlink="http://www.w3.org/1999/xlink" x="0px" y="0px"
	 width="446px" height="372.5px" viewBox="0 0 446 372.5" style="enable-background:new 0 0 446 372.5;" xml:space="preserve">
<style type="text/css">
	.st0{fill:#9AA0A6;}
	.st1{fill:#5C6670;}
	.st2{fill:#007CBA;}
	.st3{fill:#6CC04A;}
	.st4{fill:#F89421;}
	.st5{fill:#F26723;}
	.st6{font-family:'ProximaNova-Light';}
	.st7{font-size:36.2813px;}
	.st8{letter-spacing:69;}
</style>
<polygon class="st0" points="72.9,367.8 133.1,307.8 137.7,312.6 77.6,372.5 72.9,367.8 "/>
<path class="st0" d="M56.6,371.9c-4.7-4.8-40-42.5-52.6-105.6c-3.5-16.5-2-28.4,4.2-36.2c7.4-9.1,19.8-10.4,29.7-10.5
	c5.1,0,12.6,0,20.6,0c17.4,0,37.3,0,41,0.1v6.6c-3.8-0.1-23.7-0.1-41-0.1c-7.9,0-15.4,0-20.4,0c-8.6,0.1-19.1,1.1-24.7,8.1
	c-4.9,6.2-5.9,16.4-2.9,30.7c12,60.3,46.3,97.6,50.7,102.2L56.6,371.9L56.6,371.9z"/>
<path class="st0" d="M133.1,295.1c-16.3-20.9-25.4-46.2-25.3-71.4h6.7c-0.1,23.7,8.4,47.6,23.8,67.3L133.1,295.1L133.1,295.1z"/>
<path class="st1" d="M0,210.6c0.1-6.7,1.9-58.3,37.5-111.9c9.2-14.1,18.6-21.5,28.6-22.5c0.8-0.1,1.7-0.1,2.5-0.1
	c10.6,0,19.4,7.3,25.9,13.7c11.3,11.1,38.9,38.9,43.6,43.6l-4.7,4.7c-4.6-4.6-32.3-32.5-43.5-43.5C84.3,89,76.7,82.7,68.5,82.7
	c-0.6,0-1.2,0.1-1.7,0.1C59,83.6,51,90.2,43.1,102.5C9,153.6,6.8,204.2,6.7,210.6L0,210.6L0,210.6z"/>
<path class="st1" d="M108.4,210.4c3.3-26.4,14.9-50.6,32.7-68.3l4.7,4.7c-16.8,16.7-27.7,39.5-30.8,64.3L108.4,210.4L108.4,210.4z"
	/>
<path class="st2" d="M219.6,99.6c0-8.6,0.1-46.2,0-61.7c-0.1-8.4-1-18.9-8-24.6c-3.7-3.1-9.2-4.6-16.2-4.6c-4.2,0-9,0.6-14.5,1.7
	C120.8,22.5,83.3,56.9,78.8,61.3l-4.7-4.7c4.7-4.7,42.6-39.9,105.6-52.6c5.8-1.2,11.1-1.9,15.8-1.9c8.6,0,15.3,2,20.4,6.1
	C225,15.6,226.2,28,226.3,38c0.1,15.5,0,53-0.1,61.7H219.6L219.6,99.6z"/>
<path class="st2" d="M150.9,133c20.8-16.3,46.1-25.2,71.2-25.2h0.1v6.6h-0.1c-23.7,0-47.5,8.5-67.1,23.8L150.9,133L150.9,133z"/>
<path class="st3" d="M307.9,133.3L307.9,133.3c9.8-9.7,33.4-33.2,43.5-43.5c6-6,12.7-14.1,11.8-23.1C362.4,59,355.8,51,343.6,43
	C292.1,8.7,241.9,6.7,235.4,6.6L235.3,0c6.1,0.1,58.5,1.9,111.9,37.5c14.2,9.2,21.5,18.6,22.6,28.6c1.3,11.6-6.6,21.3-13.6,28.4
	c-11.1,11.3-39,38.9-43.6,43.5L307.9,133.3L307.9,133.3z"/>
<path class="st3" d="M299.2,145.7c-16.7-16.8-39.5-27.7-64.4-30.7l0.8-6.7c26.3,3.3,50.5,14.8,68.3,32.7L299.2,145.7L299.2,145.7z"
	/>
<path class="st4" d="M387.5,226.3c-17.4,0-37.2-0.1-41.1-0.1l0.1-6.6c3.8,0,23.6,0.1,41,0.1c8.1,0,15.5-0.1,20.6-0.1
	c8.5,0,19-1,24.6-8c4.9-6.1,5.9-16.4,2.9-30.7c-12.1-60.3-46.4-97.7-50.8-102.2l4.7-4.7c4.7,4.8,40,42.6,52.6,105.6
	c3.5,16.5,2.1,28.4-4.2,36.2c-7.4,9.2-19.7,10.4-29.7,10.4C403,226.2,395.5,226.3,387.5,226.3L387.5,226.3z"/>
<path class="st4" d="M331.5,222.2c0.1-23.7-8.4-47.6-23.8-67.2l5.2-4.2c16.3,20.9,25.2,46.2,25.2,71.4H331.5L331.5,222.2z"/>
<path class="st5" d="M377.5,369.9c-10.7,0-19.5-7.4-26-13.8c-10.2-10-33.7-33.7-43.4-43.4l-0.1-0.1l4.7-4.7c4,4,32,32.3,43.5,43.5
	c5.6,5.6,13.1,11.9,21.3,11.9c0.6,0,1.2,0,1.7-0.1c7.7-0.8,15.8-7.4,23.8-19.6c34.1-51.1,36.2-101.8,36.3-108.1h6.7
	c-0.1,6.7-1.9,58.4-37.5,111.9c-9.3,14.1-18.6,21.5-28.6,22.5C379.2,369.8,378.3,369.9,377.5,369.9L377.5,369.9z"/>
<path class="st5" d="M300.3,299.2c16.8-16.7,27.7-39.6,30.7-64.4l6.6,0.8c-3.2,26.3-14.8,50.5-32.6,68.3L300.3,299.2L300.3,299.2z"
	/>
<text transform="matrix(1 0 0 1 63.4736 279.9005)" class="st1 st6 st7">1</text>
<text transform="matrix(1 0 0 1 51.6533 148.3849)" class="st1 st6 st7">2</text>
<text transform="matrix(1 0 0 1 167.8661 54.3927)" class="st1 st6 st7 st8">3</text>
<text transform="matrix(1 0 0 1 368.1396 148.3849)" class="st1 st6 st7">5</text>
<text transform="matrix(1 0 0 1 258.4729 55.0515)" class="st1 st6 st7">4</text>
<text transform="matrix(1 0 0 1 362.5361 279.9005)" class="st1 st6 st7">6</text>
<path class="st0" d="M87,312.9c1.3-2.2,2.1-4.8,2.1-7.5l0,0l0,0c0-2.5-0.7-4.9-2-6.9c-1.4-2.1-3.3-3.5-5.5-4.2
	c-4.4-1.4-9,0.4-11.6,4.3c-2.6-3.9-7.2-5.7-11.6-4.3c-2.2,0.7-4.2,2.2-5.5,4.2c-1.3,2-2,4.4-2,6.9l0,0l0,0v0l0,0
	c0,2.6,0.7,5.2,2.1,7.5l0.1,0.2l0,0.1c1.2,2.1,2.8,4,4.6,5.7l0,0l5.7,5.4l0.9,0.9l0.9,0.9L66,327l0.8,1l0.8,1l0.7,1L69,331l0,0
	c0.2,0.3,0.6,0.5,1,0.5h0h0h0c0.4,0,0.8-0.2,1-0.5l0,0l0.7-1.1l0.7-1l0.8-1l0.8-1l0.8-0.9l0.9-0.9l0.9-0.8l5.7-5.4
	c1.8-1.6,3.4-3.5,4.6-5.7l0-0.1L87,312.9L87,312.9z M81.1,296.1c3.7,1.2,6.3,5,6.3,9.3c0,2.3-0.6,4.4-1.7,6.3h-5.1h0h-0.1l0,0h0
	l-0.1,0l0,0h0l-0.1,0l0,0l0,0l0,0l0,0l0,0l0,0l0,0l0,0l0,0l0,0l0,0l0,0l0,0l0,0l0,0l0,0l0,0l0,0l0,0l0,0l0,0l0,0l0,0l0,0l0,0.1v0
	l0,0l0,0.1l0,0l0,0l0,0.1l0,0c0.2,0.8-0.1,1.5-0.7,2c-0.6,0.5-1.4,0.5-2,0c-0.6-0.4-0.9-1.2-0.7-2l0,0l0-0.1l0,0l0,0l0-0.1l0,0l0,0
	l0-0.1l0,0l0,0l0,0l0,0l0,0l0,0l0,0l0,0l0,0l0,0l0,0l0,0l0,0l0,0l0,0l0,0l0,0l0,0l0,0l0,0l0,0l0,0l0,0l0,0l-0.1,0h0l0,0l-0.1,0h0
	l0,0h-0.1h0h-4.7v-1.7c1-0.1,2-0.6,2.7-1.6c0.8-1.3,0.8-3,0-4.3c-0.6-0.9-1.6-1.5-2.7-1.6l0-2.1l0.2-0.2l0,0l0,0
	C73.1,296.6,77.2,294.9,81.1,296.1L81.1,296.1z M52.6,305.4L52.6,305.4c0-4.3,2.6-8.2,6.3-9.3c3.9-1.2,8,0.5,10,4.2l0,0l0,0
	c0.1,0.1,0.1,0.2,0.2,0.3l0,3.1l0,0l0,0.1l0,0l0,0l0,0.1l0,0l0,0l0,0.1l0,0l0,0l0,0l0,0l0,0.1l0,0l0,0l0,0l0,0.1l0,0l0,0l0,0l0,0
	l0,0l0,0l0.1,0l0,0l0.1,0l0,0l0,0l0,0l0,0l0,0h0H70h0h0h0h0.1l0,0h0l0.1,0h0c0.7-0.2,1.4,0.1,1.9,0.7c0.4,0.6,0.4,1.5,0,2.1
	c-0.4,0.6-1.2,0.9-1.9,0.7h0l-0.1,0h0l0,0H70h0l0,0h0h-0.1h0l-0.1,0l0,0l0,0l0,0l0,0l0,0l0,0l0,0l0,0l0,0l0,0l0,0l0,0l0,0l0,0l0,0
	l0,0l0,0l0,0l0,0l0,0l0,0.1l0,0l0,0.1l0,0l0,0l0,0l0,0l0,0l0,0.1l0,0l0,2.8h-3.7c-0.1-1.1-0.6-2.2-1.5-2.8c-1.2-0.9-2.8-0.9-4,0
	c-0.9,0.7-1.4,1.7-1.5,2.8h-4.1C53.2,309.9,52.6,307.7,52.6,305.4L52.6,305.4L52.6,305.4z M68.2,326.7L68.2,326.7l-0.8-1l0,0
	l-0.8-0.9l0,0l-0.9-0.9l0,0l-0.9-0.9h0l-5.7-5.4h0l0,0c-1.3-1.2-2.4-2.5-3.4-3.9h4h0h0.1l0,0h0l0.1,0h0h0l0.1,0l0,0l0,0l0,0l0,0l0,0
	l0,0l0,0l0,0l0,0l0,0l0,0l0,0l0,0l0-0.1l0,0l0-0.1l0,0l0,0l0,0l0-0.1l0,0l0,0l0-0.1l0,0l0-0.1l0,0l0,0l0-0.1l0,0l0,0l0-0.1l0,0
	c-0.2-0.8,0.1-1.6,0.7-2c0.6-0.4,1.4-0.4,2,0c0.6,0.5,0.9,1.2,0.7,2l0,0l0,0.1l0,0l0,0l0,0.1l0,0v0l0,0.1l0,0l0,0.1l0,0l0,0l0,0.1
	l0,0l0,0l0,0l0,0.1l0,0l0,0l0,0l0,0l0,0l0,0l0,0l0,0l0,0l0,0l0,0l0,0l0,0l0,0l0,0l0.1,0h0l0,0h0l0.1,0h0h0.1h0h4.7l0,3.7
	c-1,0.1-2,0.6-2.7,1.6c-0.8,1.3-0.8,3,0,4.3c0.6,0.9,1.6,1.5,2.7,1.6v3.3l-0.2-0.2l0,0L68.2,326.7L68.2,326.7z M81.1,317.5
	L81.1,317.5L81.1,317.5l-5.7,5.4l-0.9,0.9l0,0l-0.9,0.9l0,0l-0.9,0.9l0,0l-0.8,1l0,0l-0.8,1l0,0l-0.2,0.2v-4.3l0,0l0-0.1l0,0l0,0
	l0-0.1l0,0l0,0l0-0.1l0,0l0-0.1l0,0l0,0l0,0l0,0l0,0l0,0l0,0l0,0l0,0l0,0l0,0l0,0l0,0l0,0l0,0l0,0l0,0l0,0l0,0h0l-0.1,0h0l-0.1,0h0
	h0l-0.1,0h0l0,0l-0.1,0l0,0c-0.7,0.2-1.4-0.1-1.9-0.7c-0.4-0.6-0.4-1.5,0-2.1c0.4-0.6,1.2-0.9,1.9-0.7l0,0l0.1,0l0,0h0l0.1,0h0l0,0
	h0l0.1,0h0l0,0h0l0,0l0,0l0,0l0.1,0l0,0l0.1,0l0,0l0,0l0,0l0,0l0,0l0,0l0,0l0,0l0,0l0,0l0,0l0,0l0,0l0-0.1l0,0l0-0.1l0,0l0,0l0-0.1
	l0,0l0,0l0-0.1l0,0l0-4.7h3.7c0.1,1.1,0.6,2.2,1.5,2.8c0.6,0.5,1.3,0.7,2,0.7c0.7,0,1.4-0.2,2-0.7c0.9-0.7,1.4-1.7,1.5-2.8h3
	C83.6,315.1,82.4,316.4,81.1,317.5L81.1,317.5z"/>
<path class="st1" d="M53.5,176.1c2.9,0,5.2-2.4,5.2-5.4c0-2.9-2.3-5.3-5.2-5.3c-2.9,0-5.2,2.4-5.2,5.3
	C48.3,173.7,50.6,176.1,53.5,176.1L53.5,176.1z M53.5,167.2c1.9,0,3.4,1.5,3.4,3.5c0,1.9-1.5,3.5-3.4,3.5c-1.9,0-3.4-1.6-3.4-3.5
	C50.1,168.8,51.6,167.2,53.5,167.2L53.5,167.2z"/>
<path class="st1" d="M61.9,179.8c-1.3-1.3-3-2.1-4.8-2.1l0,0l0,0h-2.4h-2.4H50c-3.8,0-6.9,3.2-6.9,7.1v6.5c0,1.1,0.9,2,2,2h16.9
	c1.1,0,2-0.9,2-2v-6.5l0,0C63.9,182.9,63.2,181.1,61.9,179.8L61.9,179.8z M52.8,188.6l0.6-6.4l0,0l0,0l0,0v0c0-0.3,0-0.6-0.1-0.9
	l0,0h0l-0.7-1.7h1.8l-0.7,1.7l0,0l0,0c-0.1,0.3-0.2,0.6-0.1,0.9v0l0.6,6.4H52.8L52.8,188.6z M50,179.6h0.7c0,0.2,0.1,0.4,0.1,0.5
	l0.8,1.9v0l0,0l0,0l-0.7,6.8l0,0c0,0.4,0.1,0.8,0.4,1.2c0.3,0.3,0.7,0.5,1.1,0.5h2.2c0.4,0,0.8-0.2,1.1-0.5c0.3-0.3,0.4-0.7,0.4-1.2
	l0,0l-0.7-6.8h0l0,0l0,0l0.8-1.9c0.1-0.2,0.1-0.3,0.1-0.5h0.7l0,0l0,0c2.8,0,5,2.3,5,5.2v6.5l-0.2,0.2H60v-6.6c0-0.5-0.4-1-0.9-1
	c-0.5,0-0.9,0.4-0.9,1v6.6h-9.4v-6.6c0-0.5-0.4-1-0.9-1c-0.5,0-0.9,0.4-0.9,1v6.6h-1.9l-0.2-0.2v-6.5
	C44.9,181.9,47.2,179.6,50,179.6L50,179.6z"/>
<path class="st1" d="M72.2,180.2c0.4,2.2,2.3,3.8,4.5,3.8c2.6,0,4.6-2.1,4.6-4.8s-2.1-4.8-4.6-4.8c-2.2,0-4.1,1.7-4.5,3.8h-4.5
	v-12.1c0-0.5,0.4-1,0.9-1h3.6c0.4,2.2,2.3,3.8,4.5,3.8c2.6,0,4.6-2.1,4.6-4.8c0-2.6-2.1-4.8-4.6-4.8c-2.2,0-4.1,1.7-4.5,3.8h-3.6
	c-1.5,0-2.8,1.3-2.8,2.9v3.5H61c-0.5,0-0.9,0.4-0.9,0.9c0,0.5,0.4,0.9,0.9,0.9h4.8v20.7c0,1.6,1.2,2.9,2.8,2.9h3.6
	c0.4,2.2,2.3,3.8,4.5,3.8c2.6,0,4.6-2.1,4.6-4.8c0-2.6-2.1-4.8-4.6-4.8c-2.2,0-4.1,1.7-4.5,3.8h-3.6c-0.5,0-0.9-0.4-0.9-1v-12.1
	H72.2L72.2,180.2z M76.7,176.4c1.5,0,2.8,1.3,2.8,2.9c0,1.6-1.3,2.9-2.8,2.9c-1.5,0-2.7-1.2-2.8-2.7l0-0.1l0-0.1
	C74,177.6,75.2,176.4,76.7,176.4L76.7,176.4z M76.7,161.4c1.5,0,2.8,1.3,2.8,2.9s-1.3,2.9-2.8,2.9c-1.5,0-2.7-1.2-2.8-2.7l0-0.1
	l0-0.2C74,162.7,75.2,161.4,76.7,161.4L76.7,161.4z M76.7,191.3c1.5,0,2.8,1.3,2.8,2.9c0,1.6-1.3,2.9-2.8,2.9
	c-1.5,0-2.7-1.2-2.8-2.7l0-0.2l0-0.1C74,192.5,75.2,191.3,76.7,191.3L76.7,191.3z"/>
<path class="st2" d="M169.7,80.9L169.7,80.9c-1.2-4.5-4.9-7.8-9.4-8.5c-4.5-0.7-9,1.4-11.4,5.3c-2.4,3.9-2.4,9,0.2,12.8h0
	c2,3.1,3.3,6.7,3.7,10.4l0,0c0,0.1,0,0.3,0,0.3v3.7c0,1.1,0.9,2,1.9,2h7.8c1.1,0,1.9-0.9,1.9-2v-3.7v0c0-0.1,0-0.3,0-0.4l0,0l0,0
	c0.4-3.7,1.7-7.3,3.7-10.4h0C170,87.7,170.5,84.2,169.7,80.9L169.7,80.9z M150.6,78.8c2-3.3,5.7-5,9.4-4.4c3.7,0.6,6.8,3.3,7.8,7.1
	l0,0c0.7,2.7,0.3,5.7-1.3,8h0h0c-2.2,3.4-3.6,7.3-4,11.3v0c0,0.2,0,0.4,0,0.6v0v0.1h-5.3c-0.5,0-1,0.5-1,1c0,0.6,0.4,1,1,1h5.3v1.5
	h-7.7v-3.6l0,0l0,0c0-0.2,0-0.4,0-0.6l0,0c0-0.4-0.1-0.8-0.2-1.2h6c0.5,0,1-0.4,1-1c0-0.6-0.4-1-1-1h-6.4c-0.7-2.9-1.9-5.6-3.5-8.1
	h0l0,0C148.6,86.2,148.5,82,150.6,78.8L150.6,78.8z"/>
<path class="st2" d="M158.6,70.3c0.5,0,1-0.4,1-1v-3.9c0-0.6-0.4-1-1-1c-0.5,0-1,0.4-1,1v3.9C157.6,69.9,158.1,70.3,158.6,70.3
	L158.6,70.3z"/>
<path class="st2" d="M171,77.7c0.2,0,0.3,0,0.5-0.1l3.3-2c0.5-0.3,0.6-0.9,0.4-1.4c-0.3-0.5-0.9-0.6-1.3-0.4l-3.3,2
	c-0.5,0.3-0.6,0.9-0.4,1.4C170.3,77.5,170.6,77.7,171,77.7L171,77.7z"/>
<path class="st2" d="M150.6,71.8c0.2,0.3,0.5,0.5,0.9,0.5c0.2,0,0.3-0.1,0.5-0.1c0.5-0.3,0.6-0.9,0.4-1.4l-1.9-3.4
	c-0.3-0.5-0.9-0.7-1.3-0.4c-0.5,0.3-0.6,0.9-0.4,1.4L150.6,71.8L150.6,71.8z"/>
<path class="st2" d="M165.3,72.2c0.2,0.1,0.3,0.1,0.5,0.1c0.3,0,0.7-0.2,0.9-0.5l1.9-3.4c0.3-0.5,0.1-1.1-0.4-1.4
	c-0.5-0.3-1.1-0.1-1.3,0.4l-1.9,3.4C164.6,71.3,164.8,71.9,165.3,72.2L165.3,72.2z"/>
<path class="st2" d="M142.4,75.5l3.3,2c0.2,0.1,0.3,0.1,0.5,0.1c0.3,0,0.7-0.2,0.9-0.5c0.3-0.5,0.1-1.1-0.4-1.4l-3.3-2
	c-0.5-0.3-1.1-0.1-1.3,0.4C141.8,74.6,141.9,75.3,142.4,75.5L142.4,75.5z"/>
<path class="st2" d="M176.8,83h-3.9c-0.5,0-1,0.5-1,1c0,0.6,0.4,1,1,1h3.9c0.5,0,1-0.4,1-1C177.7,83.4,177.3,83,176.8,83L176.8,83z"
	/>
<path class="st2" d="M145.3,84c0-0.6-0.4-1-1-1h-3.9c-0.5,0-1,0.5-1,1c0,0.6,0.4,1,1,1h3.9C144.9,85,145.3,84.5,145.3,84L145.3,84z"
	/>
<path class="st2" d="M174.8,92.4l-3.3-2c-0.5-0.3-1.1-0.1-1.3,0.4c-0.3,0.5-0.1,1.1,0.4,1.4l3.3,2c0.2,0.1,0.3,0.1,0.5,0.1
	c0.3,0,0.7-0.2,0.9-0.5C175.4,93.3,175.3,92.7,174.8,92.4L174.8,92.4z"/>
<path class="st2" d="M145.7,90.4l-3.3,2c-0.5,0.3-0.6,0.9-0.4,1.4c0.2,0.3,0.5,0.5,0.9,0.5c0.2,0,0.3,0,0.5-0.1l3.3-2
	c0.5-0.3,0.6-0.9,0.4-1.4C146.8,90.3,146.2,90.1,145.7,90.4L145.7,90.4z"/>
<path class="st5" d="M392.2,310.8L392.2,310.8L392.2,310.8L392.2,310.8L392.2,310.8l-3.6-12l0,0l0,0c-0.1-0.5-0.5-0.9-0.9-1.2
	c-0.4-0.2-0.9-0.3-1.4-0.1h0h0l0,0l0,0l-3.9,1.2l0,0h0c-0.1,0-0.2,0.1-0.4,0l0,0h0l-8.9-0.8l0,0c-0.6,0-1.2,0.1-1.7,0.4l0,0l-1,0.6
	c-1.5-0.2-3-0.2-4.5,0l0,0c-0.2,0-0.5,0-0.6-0.2l0,0l-1.5-1.1h0h0c-0.8-0.6-2-0.4-2.6,0.5h0l-6.8,9.8l0,0l0,0
	c-0.6,0.9-0.4,2.1,0.5,2.7l0,0h0l1.7,1.3c0.2,0.1,0.3,0.4,0.3,0.7l0,0l0,0l0,0l0,0c0.2,0.7,0.5,1.3,0.8,2l-0.5,0.7h0
	c-1,1.4-0.8,3.3,0.6,4.4c0.6,0.5,1.3,0.7,1.9,0.7l0.1,0c0,0.2,0,0.4,0.1,0.6c0.2,0.8,0.6,1.5,1.3,2c0.5,0.4,1.1,0.6,1.7,0.6
	c0.2,0,0.4,0,0.5-0.1c0.2,0,0.3-0.1,0.5-0.1l0,0.1c0.2,0.8,0.8,1.5,1.5,1.9c0.5,0.3,1,0.4,1.6,0.4c0.2,0,0.5,0,0.7-0.1
	c0.1,0,0.2-0.1,0.4-0.1c0.2,0.8,0.7,1.4,1.4,1.8c0.5,0.3,1,0.4,1.6,0.4c0.9,0,1.8-0.4,2.4-1.1l1,0.6l0,0l0,0h0l0,0
	c0.5,0.3,0.9,0.4,1.4,0.4c0.3,0,0.5,0,0.8-0.1c0.8-0.2,1.4-0.7,1.8-1.4c0.4-0.6,0.5-1.2,0.5-1.9h0.1h0c0.9,0,1.8-0.4,2.3-1.1
	c0.6-0.7,0.9-1.7,0.7-2.6c0.8-0.1,1.5-0.4,2-0.9c0.6-0.6,0.9-1.3,0.9-2.2v-0.1h0c0.4,0,0.9-0.1,1.3-0.3c1-0.5,1.7-1.5,1.8-2.6
	c0-0.2,0-0.5,0-0.7l2.8-0.9h0l0,0C391.9,312.9,392.5,311.8,392.2,310.8L392.2,310.8z M358.8,318.5c-0.6-0.4-0.7-1.3-0.2-1.9l0,0l0,0
	l1.5-2.1l0,0h0c0.3-0.4,0.7-0.6,1.2-0.6c0.5,0.1,0.9,0.4,1.1,0.8c0.2,0.5,0.1,1-0.1,1.4l0,0l-1.6,2.2
	C360.2,318.9,359.4,319,358.8,318.5L358.8,318.5z M362.1,321.7c-0.6-0.4-0.7-1.2-0.4-1.8l2-2.7l0,0h0l0,0h0l0,0l0-0.1l0.2-0.3
	c0.4-0.6,1.2-0.7,1.8-0.2c0.6,0.4,0.7,1.2,0.3,1.8l0,0l-1.9,2.6l-0.1,0.2l-0.2,0.2l0,0l0,0C363.5,322,362.7,322.1,362.1,321.7
	L362.1,321.7z M366.2,323.9c-0.6-0.4-0.9-1.1-0.6-1.8l1.9-2.6c0.6-0.4,1.4-0.4,1.9,0.1c0.5,0.5,0.6,1.4,0.2,2l-1.3,1.7h0l-0.1,0.1
	C367.7,324.1,366.9,324.3,366.2,323.9L366.2,323.9z M370.3,326c-0.6-0.3-0.8-1.1-0.6-1.6l1.2-1.5c0.4-0.5,1.2-0.5,1.7-0.1
	c0.5,0.5,0.6,1.3,0.2,1.9l0,0v0l-0.3,0.5l-0.1,0.1h0l-0.3,0.4C371.7,326.2,370.9,326.3,370.3,326L370.3,326z M386.4,314.6
	c0,0.5-0.3,0.9-0.8,1.1c-0.4,0.2-0.9,0.2-1.3-0.1h0h0l-0.2-0.1h0l-3.7-2.7c-0.4-0.3-0.9-0.2-1.2,0.2c-0.3,0.4-0.2,1,0.2,1.3l3.6,2.6
	c0.4,0.5,0.4,1.3-0.1,1.8c-0.5,0.5-1.3,0.5-1.8,0.1l0,0l0,0l0,0l-0.1,0l-3.3-2.4c-0.4-0.3-0.9-0.2-1.2,0.2c-0.3,0.4-0.2,1,0.2,1.3
	l3.2,2.3l0.1,0.1c0.6,0.6,0.6,1.5,0.1,2.1c-0.5,0.6-1.5,0.6-2.2,0l0,0l-0.1-0.1h0l0,0l-1.9-1.4c-0.4-0.3-0.9-0.2-1.2,0.2
	c-0.3,0.4-0.2,1,0.2,1.3l1.9,1.4c0.5,0.4,0.7,1.2,0.3,1.8c-0.4,0.6-1.1,0.8-1.7,0.5l-0.8-0.5c0.8-1.3,0.5-3-0.7-4
	c-0.6-0.5-1.4-0.8-2.1-0.7c0-0.8-0.4-1.7-1-2.3c-0.7-0.7-1.6-1-2.5-0.9c-0.1-0.9-0.5-1.8-1.3-2.3c-0.8-0.6-1.7-0.8-2.6-0.5
	c0-0.2-0.1-0.4-0.2-0.6c-0.4-1-1.4-1.8-2.5-1.9c-1-0.1-2,0.3-2.6,1.1c-0.1-0.3-0.2-0.5-0.3-0.8c-0.1-0.7-0.5-1.3-0.9-1.7l0,0l0,0
	l0,0l0,0l-1.7-1.3l0,0l0-0.2l6.8-9.8h0l0.2,0l0,0l1.5,1.1v0h0c0.5,0.3,1,0.5,1.5,0.5c0.1,0,0.2,0,0.3,0l0,0c0.6-0.1,1.3-0.1,2-0.1
	c-0.1,0.1-0.2,0.2-0.3,0.4l0,0l0,0l-1.8,3.1l0,0c-0.6,1-0.6,2.2,0.1,3.1c0.5,0.6,1.3,1,2.1,1c0.3,0,0.6-0.1,0.9-0.2h0
	c0.6-0.3,1.2-0.6,1.7-1.1l2.2-2.1c0.3-0.2,0.7-0.3,1,0l0,0l11.7,8.5h0l0,0C386.2,313.7,386.4,314.1,386.4,314.6L386.4,314.6z
	 M386.8,311.9L386.8,311.9l-11.7-8.5l0,0h0c-1-0.7-2.2-0.7-3.2,0.1l0,0l0,0l0,0l0,0l-2.2,2.1l0,0l0,0c-0.3,0.3-0.6,0.6-1.1,0.7h0
	c-0.3,0.1-0.7,0-1-0.3c-0.2-0.3-0.2-0.7,0-1l0,0l0,0l1.8-3.1c0.1-0.1,0.2-0.2,0.3-0.3l2.7-1.8h0l0,0c0.2-0.1,0.4-0.2,0.6-0.2h0l0,0
	l8.9,0.7l0,0l0,0h0l0,0l0.2,0c0.3,0,0.6,0,0.8-0.1h0l0,0h0l0,0l3.9-1.2h0l0,0h0.1l0.1,0.1l0,0l3.6,12l0,0h0l-0.1,0.2l-3.1,1
	C387.2,312.3,387,312.1,386.8,311.9L386.8,311.9z"/>
<path class="st4" d="M397.1,169.4L397.1,169.4l-1.2-0.6l0.1-1.3l0,0l0,0c0-0.6-0.3-1.3-0.9-1.6c-0.6-0.3-1.2-0.3-1.8,0h0h0l0,0l0,0
	l-5.6,3.2l0,0h0c-0.5,0.3-0.8,0.8-0.9,1.4l0,0l0,0l-0.2,2.6l-8.3,4.8c-0.2-0.1-0.4-0.2-0.7-0.2c-0.9,0-1.6,0.7-1.6,1.6
	s0.7,1.6,1.6,1.6c0.8,0,1.5-0.6,1.6-1.5l8.3-4.8l2.4,1.2h0l0,0c0.2,0.1,0.5,0.2,0.8,0.2c0.3,0,0.6-0.1,0.9-0.2l0,0l5.6-3.2l0,0l0,0
	c0.6-0.3,0.9-0.9,0.9-1.6C398.1,170.2,397.7,169.7,397.1,169.4L397.1,169.4z M390.8,174.1l-2.3-1.1l0.2-2.4l0,0l0,0h0l5.6-3.2
	l-0.1,1.9l0,0l0,0v0l0,0.1l0,0l0,0l0,0.1l0,0l0,0l0,0l0,0l0,0l0,0l0,0l0,0l0,0l0,0l0,0l0,0l0,0l0,0l0,0l0,0l0,0l0.1,0l0,0h0h0
	l1.7,0.9L390.8,174.1L390.8,174.1z M377.5,179.3L377.5,179.3l0.1,0.2L377.5,179.3L377.5,179.3z"/>
<path class="st4" d="M394.8,174.8c-0.5,0.1-0.8,0.6-0.7,1.1c0.2,0.8,0.3,1.7,0.3,2.5h-5.6c0-0.4-0.1-0.9-0.2-1.3
	c-0.1-0.5-0.6-0.8-1.1-0.7c-0.5,0.1-0.8,0.6-0.7,1.1c0.1,0.3,0.1,0.6,0.1,0.9h-3.5c-0.5,0-0.9,0.4-0.9,0.9c0,0.5,0.4,0.9,0.9,0.9
	h3.5c-0.3,3.5-2.6,6.5-6,7.8c-0.8,0.3-1.5,0.5-2.3,0.5V185c0-0.5-0.4-0.9-0.9-0.9c-0.5,0-0.9,0.4-0.9,0.9v3.5c-3-0.3-5.7-2-7.2-4.7
	c-0.6-1.2-1-2.4-1.1-3.6h3.5c0.5,0,0.9-0.4,0.9-0.9c0-0.5-0.4-0.9-0.9-0.9h-3.5c0.2-2.5,1.4-4.8,3.5-6.4c1.4-1.1,3.1-1.8,4.8-2v3.5
	c0,0.5,0.4,0.9,0.9,0.9c0.5,0,0.9-0.4,0.9-0.9V170c2,0.2,3.9,1,5.4,2.4c0.4,0.3,0.9,0.3,1.3,0c0.3-0.4,0.3-0.9,0-1.3
	c-1.8-1.7-4.2-2.7-6.6-2.9v-5.6c3.6,0.2,7.2,1.6,10.1,4.2c0.4,0.3,0.9,0.3,1.3-0.1c0.3-0.4,0.3-0.9-0.1-1.3
	c-3.3-2.9-7.5-4.5-11.9-4.6h-0.2l-0.2,0l-0.2,0c-4.2,0-8.3,1.5-11.5,4.2c-3.4,2.8-5.7,6.7-6.5,11c-0.2,1-0.3,2.1-0.3,3.1l0,0.2
	l0,0.2c0,3.2,0.9,6.3,2.5,9.1c2.2,3.8,5.7,6.7,9.8,8.1c2,0.7,4.1,1,6.1,1c2.2,0,4.5-0.4,6.6-1.2c4.1-1.6,7.5-4.5,9.6-8.4
	c2.1-3.8,2.8-8.3,1.9-12.6C395.7,175,395.2,174.7,394.8,174.8L394.8,174.8z M367.2,166.4c2.8-2.3,6.2-3.6,9.6-3.8v5.6
	c-2.2,0.2-4.2,1-6,2.3c-2.1,1.6-3.5,3.9-4,6.5c-0.1,0.4-0.1,0.8-0.2,1.3h-5.6C361.4,173.8,363.4,169.5,367.2,166.4L367.2,166.4z
	 M363.4,187.6c-1.4-2.4-2.1-4.9-2.3-7.5h5.6c0.1,1.6,0.6,3.1,1.4,4.5c1.3,2.3,3.4,4.1,5.8,5c1,0.4,1.9,0.6,3,0.7v5.6
	C371.4,195.6,366.3,192.6,363.4,187.6L363.4,187.6z M383.7,194.8c-1.7,0.6-3.4,1-5.1,1.1v-5.6c1-0.1,2-0.3,2.9-0.7
	c2.5-0.9,4.5-2.7,5.8-5c0.8-1.4,1.2-2.9,1.4-4.5h5.6C394.1,186.6,390,192.4,383.7,194.8L383.7,194.8z"/>
<path class="st3" d="M314.8,85.8l0-0.2l0-0.2c0-2.5-0.5-5-1.5-7.3c-1-2.3-2.3-4.3-4.1-6.1c-1.8-1.8-3.8-3.1-6.1-4.1
	c-2.4-1-4.9-1.5-7.4-1.5c-2.6,0-5.1,0.5-7.4,1.5c-2.3,1-4.3,2.3-6.1,4.1c-1.8,1.7-3.1,3.8-4.1,6.1c-1,2.4-1.5,4.9-1.5,7.4l0,0l0,0v0
	c0,2.6,0.5,5.1,1.5,7.4c0.8,1.8,1.8,3.5,3.1,5l0.1,0.1c0.3,0.4,0.6,0.7,1,1.1c1.8,1.7,3.8,3.1,6.1,4.1c2.3,1,4.8,1.5,7.3,1.5l0.2,0
	l0.2,0c2.5,0,5-0.5,7.3-1.5c2.3-1,4.3-2.3,6.1-4.1c0.3-0.3,0.6-0.6,0.9-1c0.1-0.1,0.2-0.2,0.2-0.3c1.2-1.5,2.2-3.1,3-4.8
	C314.3,90.8,314.8,88.3,314.8,85.8L314.8,85.8z M309.3,96.3l-0.5-0.2l0,0l-1.2-0.5l0,0l-1.2-0.4l0,0l-1.2-0.4l0,0l-0.3-0.1
	c0.7-2.6,1.1-5.4,1.2-8.1h7.1C312.8,90.2,311.4,93.6,309.3,96.3L309.3,96.3z M296.6,102.9v-7.6l0.4,0l1.3,0.1l1.3,0.1l1.3,0.2
	l1.2,0.2l0.4,0.1c-0.7,2.3-1.7,4.4-2.9,6.5C298.6,102.7,297.6,102.9,296.6,102.9L296.6,102.9z M291.9,102.5
	c-1.2-2.1-2.2-4.3-2.9-6.5l0.4-0.1l1.2-0.2l1.2-0.2l1.3-0.1l1.3-0.1l0.3,0v7.6C293.8,102.9,292.8,102.7,291.9,102.5L291.9,102.5z
	 M282.7,96.1l-0.5,0.2c-2.2-2.7-3.5-6.1-3.7-9.8h7.1c0.1,2.8,0.5,5.5,1.2,8.1l-0.2,0.1l0,0l-1.2,0.4l0,0l-1.2,0.4l0,0L282.7,96.1
	L282.7,96.1L282.7,96.1z M282.1,74.9l0.6,0.2l0,0l1.2,0.5l0,0l1.2,0.4l0,0l1.2,0.4l0,0l0.2,0c-0.7,2.7-1.1,5.4-1.1,8.1h-7.1
	C278.6,81,280,77.7,282.1,74.9L282.1,74.9z M294.8,68.4V76l-0.3,0l-1.3-0.1l-1.3-0.1l-1.2-0.2l-1.2-0.2l-0.5-0.1
	c0.7-2.2,1.6-4.4,2.8-6.5C292.7,68.6,293.7,68.4,294.8,68.4L294.8,68.4z M299.6,68.8c1.2,2.1,2.1,4.3,2.8,6.5l-0.4,0.1l-1.2,0.2
	l-1.3,0.2l-1.3,0.1L297,76l-0.4,0v-7.7C297.6,68.4,298.6,68.6,299.6,68.8L299.6,68.8z M308.7,75.2l0.5-0.2c2.1,2.7,3.5,6.1,3.7,9.8
	h-7.1c-0.1-2.7-0.4-5.5-1.1-8.1l0.2-0.1l0,0l1.2-0.4l0,0l1.2-0.4l0,0L308.7,75.2L308.7,75.2L308.7,75.2z M302.9,94.2l-0.5-0.1h0
	l-1.3-0.2h0l-1.3-0.2h0l-1.3-0.1h0l-1.3-0.1h0l-0.4,0v-6.9h7.4C303.9,89.1,303.5,91.7,302.9,94.2L302.9,94.2z M287.4,86.6h7.4v6.9
	l-0.4,0h0l-1.3,0.1h0l-1.3,0.1h0l-1.3,0.2l0,0l-1.3,0.2l0,0l-0.6,0.1C287.8,91.7,287.5,89.1,287.4,86.6L287.4,86.6z M288.4,77
	l0.6,0.1l0,0l1.3,0.2l0,0l1.3,0.2h0l1.3,0.1h0l1.3,0.1h0l0.4,0v6.9h-7.4C287.4,82.2,287.8,79.6,288.4,77L288.4,77z M296.6,84.7v-6.9
	l0.4,0h0l1.3-0.1h0l1.3-0.1h0l1.3-0.2h0l1.3-0.2h0l0.6-0.1c0.6,2.5,1,5.1,1.1,7.7H296.6L296.6,84.7z M308,73.5L308,73.5l-1.2,0.5
	l-1.2,0.4l-1.2,0.4l-0.2,0.1c-0.6-1.8-1.3-3.6-2.1-5.3C304.3,70.5,306.3,71.8,308,73.5L308,73.5z M289.3,69.6
	c-0.8,1.7-1.5,3.5-2.1,5.3l-0.2-0.1l-1.2-0.4l-1.2-0.4l-1.2-0.5l0,0C285,71.8,287,70.5,289.3,69.6L289.3,69.6z M283.4,97.8
	L283.4,97.8l1.2-0.5l1.2-0.4l1.2-0.4l0.3-0.1c0.6,1.8,1.3,3.6,2.2,5.3C287.1,100.9,285.1,99.5,283.4,97.8L283.4,97.8z M302,101.7
	c0.9-1.7,1.6-3.5,2.2-5.3l0.3,0.1l1.2,0.4l1.2,0.4l1.2,0.5C306.3,99.5,304.3,100.9,302,101.7L302,101.7z"/>
</svg>
